# xmcd
#
# Track frame offsets:
# 150
# 14287
# 24153
# 35121
# 49412
# 61426
# 70982
# 83666
# 102072
# 113256
# 126997
# 140215
# 154200
# 169432
# 180263
# 196290
# 209532
# 223367
# 236373
# 245947
# 259932
#
# Disc length: 3797 seconds
#
#
# Revision: 0
# Processed by: cddbd v1.5.2PL0 Copyright (c) Steve Scherf et al.
# Submitted via: FreeRIP 2.951 
#
DISCID=3a0ed315
DTITLE=Various Artist - The Original Easy Album
DYEAR=2004
DGENRE=Swing
TTITLE0=Dean Martin - That's Amore
TTITLE1=Matt Monro - Music To Watch Girls By
TTITLE2=Nat King Cole - Let's Face The Music And Dance
TTITLE3=Peggy Lee - Something
TTITLE4=Sammy Davis Jr - Please Don't Talk About Me When I'm Gone
TTITLE5=Tony Bennett - Chicago
TTITLE6=Nina Simone - Do Nothin' Till You Hear From Me
TTITLE7=Sarah Vaughan - In A Sentimental Mood
TTITLE8=Dinah Washington - Fly Me To The Moon (In Other Words)
TTITLE9=Ella Fitzgerald - It's Only Love
TTITLE10=Julie London - Cry Me A River
TTITLE11=Mel Torme - You're Getting To Be A Habbit With Me
TTITLE12=Al Martino - Can't Take My Eyes Off You
TTITLE13=Vikki Carr - Strangers In The Night
TTITLE14=Shirley Bassey - I've Got You Under My Skin
TTITLE15=Kay Starr - Crazy
TTITLE16=Eartha Kitt - The Girl From Ipanema
TTITLE17=Nancy Wilson - The Very Thought Of You
TTITLE18=Bobby Darin - On The Street Where You Live
TTITLE19=Louis Armstrong - I Got It Bad (And That Ain't Good)
TTITLE20=
EXTD=
EXTT0=
EXTT1=
EXTT2=
EXTT3=
EXTT4=
EXTT5=
EXTT6=
EXTT7=
EXTT8=
EXTT9=
EXTT10=
EXTT11=
EXTT12=
EXTT13=
EXTT14=
EXTT15=
EXTT16=
EXTT17=
EXTT18=
EXTT19=
EXTT20=
PLAYORDER=
